<?xml version="1.0" encoding="iso-8859-1"?>
<!-- Generator: Adobe Illustrator 19.0.0, SVG Export Plug-In . SVG Version: 6.00 Build 0)  -->
<svg version="1.1" id="Capa_1" xmlns="http://www.w3.org/2000/svg" xmlns:xlink="http://www.w3.org/1999/xlink" x="0px" y="0px"
	 viewBox="0 0 512 512" style="enable-background:new 0 0 512 512;" xml:space="preserve">
<g>
	<g>
		<circle cx="255.49" cy="84.18" r="7.789"/>
	</g>
</g>
<g>
	<g>
		<path d="M447.45,211.095c-0.83,0.754-1.906,1.169-3.03,1.169c-2.487,0-4.511-2.023-4.511-4.51s2.024-4.51,4.511-4.51
			c4.085,0,7.397-3.312,7.397-7.397v-12.465h2.305c4.085,0,7.397-3.312,7.397-7.397c0-4.085-3.312-7.397-7.397-7.397h-90.254
			c1.924-17.307,2.209-30.982,2.209-37.504c0-47.589-32.318-88.011-76.845-101.838v-5.103h1.798c4.085,0,7.397-3.312,7.397-7.397
			c0-4.085-3.312-7.397-7.397-7.397h-2.108C287.703,4.003,282.921,0,277.212,0h-43.446c-6.628,0-12.021,5.392-12.021,12.021v17.223
			C177.219,43.071,144.9,83.493,144.9,131.082c0,10.089,0.548,21.88,1.779,34.508H57.877c-4.085,0-7.397,3.312-7.397,7.397
			s3.312,7.397,7.397,7.397h3.344v12.465c0,4.085,3.312,7.397,7.397,7.397c2.487,0,4.51,2.023,4.51,4.51s-2.023,4.51-4.51,4.51
			c-1.124,0-2.2-0.415-3.03-1.169c-3.024-2.746-7.703-2.52-10.449,0.504c-2.746,3.024-2.521,7.703,0.504,10.449
			c3.558,3.231,8.166,5.01,12.975,5.01c10.645,0,19.305-8.66,19.305-19.305c0-8.026-4.923-14.923-11.908-17.832v-6.541h10.949
			l13.733,19.654c2.786,3.988,7.354,6.369,12.219,6.369h39.924c2.814,13.512,6.466,26.984,11.114,39.551
			c1.128,3.05,2.301,6.01,3.517,8.884l-46.784,181.861l-6.563,25.509c0,0.001,0,0.002-0.001,0.004l-0.792,3.081h-6.022v-16.084
			c0-6.56-5.338-11.898-11.898-11.898H79.487c-6.56,0-11.897,5.338-11.897,11.898V500.1c0,6.56,5.337,11.898,11.897,11.898h15.925
			c6.56,0,11.898-5.338,11.898-11.898v-20.01h11.758c3.376,0,6.323-2.285,7.164-5.554l0.793-3.084H236.38V500.9
			c0,6.121,4.98,11.1,11.1,11.1H265c6.121,0,11.1-4.98,11.1-11.1v-29.446h107.854l0.793,3.084c0.841,3.269,3.789,5.554,7.164,5.554
			h11.758v20.01c0,6.56,5.338,11.898,11.898,11.898h15.924c6.56,0,11.898-5.338,11.898-11.898v-50.889
			c0-6.56-5.338-11.898-11.898-11.898h-15.924c-6.56,0-11.898,5.338-11.898,11.898v16.084h-6.022l-0.801-3.115l-6.467-26.168
			c-0.158-0.638-0.417-1.225-0.722-1.78l-46.65-181.34c4.084-9.14,7.7-19.111,10.808-29.859c0.268-0.928,0.347-1.868,0.257-2.778
			c1.016-3.641,1.949-7.264,2.801-10.855h42.109c4.928,0,9.555-2.411,12.379-6.452l13.675-19.571h11.988v6.541
			c-6.985,2.908-11.908,9.806-11.908,17.832c0,10.645,8.661,19.305,19.305,19.305c4.809,0,9.417-1.78,12.975-5.01
			c3.025-2.747,3.25-7.425,0.504-10.449C455.152,208.574,450.474,208.348,447.45,211.095z M112.917,191.612
			c-0.037,0-0.07-0.017-0.092-0.048l-7.812-11.18H148.4c0.501,3.708,1.062,7.456,1.685,11.228H112.917z M92.515,497.205h-10.13
			V452.11h10.13V497.205z M418.464,452.11h10.13v45.095h-10.13V452.11z M236.54,14.795h37.899v0.403
			c-0.106,0.499-0.165,1.016-0.165,1.547s0.058,1.047,0.165,1.547v7.433c-6.159-1.033-12.49-1.577-18.95-1.577
			c-6.46,0-12.79,0.544-18.949,1.577V14.795z M177.562,275.005c1.9,3.208,3.88,6.242,5.925,9.13c0.279,0.52,0.622,0.999,1.013,1.436
			c16.816,23.046,38.333,35.379,63.593,36.2v108.622H137.588L177.562,275.005z M173.95,227.569
			c5.73,1.508,11.206,6.272,14.134,12.927c3.215,7.31,2.669,15.247-0.838,20.521c-1.645-3.162-3.217-6.492-4.73-9.954
			c-0.151-0.46-0.345-0.902-0.581-1.322C179.012,242.899,176.344,235.5,173.95,227.569z M205.867,288.045h94.786
			c-14.069,12.613-30.708,18.975-49.807,18.988c-0.018,0-0.03,0-0.048,0C233.61,307.032,218.599,300.667,205.867,288.045z
			 M261.306,497.205h-10.13v-25.752h10.13V497.205z M380.148,456.658H265h-17.519h-116.65l2.951-11.472h243.415L380.148,456.658z
			 M373.391,430.392H262.887V321.06c23.476-3.008,43.676-14.916,59.886-35.161c0.433-0.429,0.807-0.916,1.123-1.441
			c1.538-1.981,3.043-4.031,4.507-6.165c0.737-0.52,1.39-1.181,1.912-1.974c0.829-1.259,1.641-2.553,2.445-3.863L373.391,430.392z
			 M321.509,240.496c3.068-6.974,8.921-11.822,14.913-13.088c-1.47,4.482-3.063,8.888-4.792,13.174
			c-2.927,7.257-6.115,13.912-9.549,19.989C318.837,255.289,318.396,247.572,321.509,240.496z M340.851,212.301
			c-13.205-0.661-26.601,7.951-32.885,22.237c-6.159,14.001-3.682,29.361,5.281,38.713H196.355
			c8.986-9.333,11.463-24.635,5.271-38.713c-6.166-14.016-19.248-22.669-32.334-22.267c-3.318-13.878-5.655-28.043-7.193-41.451
			h85.993v13.267c0,4.085,3.312,7.397,7.397,7.397c4.085,0,7.397-3.312,7.397-7.397V170.82h85.793
			C347.007,184.255,344.465,198.435,340.851,212.301z M350.208,156.026h-87.322v-13.219h36.578c4.085,0,7.397-3.312,7.397-7.397
			c0-4.085-3.312-7.397-7.397-7.397h-87.951c-4.085,0-7.397,3.312-7.397,7.397c0,4.085,3.312,7.397,7.397,7.397h36.578v13.219
			h-87.403c-0.682-9.027-0.993-17.47-0.993-24.943c0.001-50.807,42.973-92.141,95.794-92.141s95.794,41.334,95.794,92.141
			C351.283,138.563,350.946,147.007,350.208,156.026z M399.233,194.477c-0.058,0.083-0.152,0.132-0.252,0.132h-38.978
			c0.716-3.825,1.352-7.576,1.911-11.228h45.072L399.233,194.477z"/>
	</g>
</g>
<g>
</g>
<g>
</g>
<g>
</g>
<g>
</g>
<g>
</g>
<g>
</g>
<g>
</g>
<g>
</g>
<g>
</g>
<g>
</g>
<g>
</g>
<g>
</g>
<g>
</g>
<g>
</g>
<g>
</g>
</svg>
